<svg width="450" height="484" viewBox="0 0 450 484" fill="none" xmlns="http://www.w3.org/2000/svg">
<path fill-rule="evenodd" clip-rule="evenodd" d="M40.5847 2.06152C38.2051 3.14186 34.744 5.73468 32.7971 7.67929C26.4155 14.3774 25.9829 16.7541 25.9829 44.3027V69.1505H15.1667C13.9838 69.1505 12.8926 69.1326 11.8863 69.116H11.8856H11.885H11.8844C7.81892 69.0493 5.13667 69.0053 3.36999 70.2553C-0.0558032 72.6791 -0.0389368 79.9687 0.0106352 101.393C0.0171065 104.19 0.0241352 107.228 0.0241352 110.527C0.0241352 150.824 0.456781 154.065 6.2975 164.22C9.75867 170.162 17.5463 178.589 22.3054 181.614L25.9829 183.882V281.221C25.9829 373.806 26.0911 378.883 28.038 382.988C29.1196 385.365 31.7155 388.822 33.6624 390.767C39.2868 396.06 44.0459 397.573 55.1865 397.573C66.7598 397.573 69.2475 396.06 69.2475 388.93C69.2475 382.664 66.4353 380.288 59.0803 380.288C50.7519 380.288 46.6417 378.559 44.803 374.238C43.5051 371.213 43.2887 355.116 43.2887 280.356V190.148H52.3743C67.8414 190.148 79.8473 184.963 90.2308 173.943L95.2062 168.65L100.182 173.943C106.563 180.749 113.377 185.071 122.571 188.096L129.818 190.472V213.808V237.035L108.186 258.75L86.5533 280.464V333.617L86.5533 336.283C86.552 381.869 86.5517 389.702 90.2353 394.949C90.9995 396.038 91.9224 397.015 93.0367 398.195L93.1959 398.363L93.3675 398.545C100.398 406 101.696 406.216 138.255 406.216C174.38 406.216 175.678 406 182.709 399.41L182.881 399.245C183.001 399.13 183.12 399.017 183.237 398.906C184.522 397.681 185.576 396.676 186.441 395.529C190.39 390.29 190.39 382.075 190.388 336.354L190.388 333.941V280.464L168.756 258.75L147.124 237.035V213.808V190.472L154.479 188.096C163.564 185.071 170.378 180.749 176.76 173.943L181.735 168.65L186.711 173.943C197.203 185.071 209.1 190.148 225 190.148C240.9 190.148 252.798 185.071 263.289 173.943L268.265 168.65L273.24 173.943C283.732 185.071 295.629 190.148 311.529 190.148C327.429 190.148 339.327 185.071 349.818 173.943L354.794 168.65L359.769 173.943C370.153 184.963 382.159 190.148 397.626 190.148H406.711V257.129V257.132C406.711 322.706 406.711 324.11 408.875 326.271C411.795 329.188 418.934 329.188 421.854 326.271C424.017 324.11 424.017 322.706 424.017 253.999V253.996V183.882L427.695 181.614C432.454 178.589 440.241 170.162 443.703 164.22C449.543 154.065 449.976 150.824 449.976 110.527C449.976 107.228 449.983 104.19 449.989 101.393C450.039 79.9687 450.056 72.6791 446.63 70.2553C444.863 69.0053 442.181 69.0493 438.116 69.116H438.115L438.114 69.1161C437.108 69.1326 436.016 69.1505 434.833 69.1505H424.017V43.9786C424.017 15.9979 423.476 13.6211 416.338 6.815C415.814 6.32084 415.392 5.86236 415.001 5.437C414.675 5.08192 414.369 4.74993 414.044 4.43952C409.357 -0.0256744 400.414 -0.0238663 262.835 0.00395079C251.111 0.00632127 238.453 0.00888062 224.784 0.00888062C51.8335 0.00888062 44.6948 0.116917 40.5847 2.06152ZM400.654 18.8068C406.062 21.0755 406.711 24.3165 406.711 48.1919V69.1505H225H43.2887V48.1919C43.2887 24.6406 44.0459 21.0755 49.1295 18.8068C54.213 16.6461 395.354 16.5381 400.654 18.8068ZM86.5533 110.96C86.5533 145.638 85.0391 152.769 75.7372 162.059C68.3822 169.406 63.7313 171.242 51.9417 171.242C43.3969 171.242 40.9092 170.81 37.1235 168.758C26.5237 163.14 20.4667 154.605 18.5198 142.613C17.8708 138.724 17.33 124.572 17.33 110.96V86.4359H51.9417H86.5533V110.96ZM173.083 110.96C173.083 145.638 171.568 152.769 162.266 162.059C154.911 169.406 150.26 171.242 138.471 171.242C129.926 171.242 127.438 170.81 123.653 168.758C113.053 163.14 106.996 154.605 105.049 142.613C104.4 138.724 103.859 124.572 103.859 110.96V86.4359H138.471H173.083V110.96ZM259.612 110.96C259.612 145.638 258.097 152.769 248.796 162.059C241.441 169.406 236.79 171.242 225 171.242C216.455 171.242 213.968 170.81 210.182 168.758C199.582 163.14 193.525 154.605 191.578 142.613C190.929 138.724 190.388 124.572 190.388 110.96V86.4359H225H259.612V110.96ZM346.141 110.96C346.141 145.638 344.627 152.769 335.325 162.059C327.97 169.406 323.319 171.242 311.529 171.242C302.984 171.242 300.497 170.81 296.711 168.758C286.111 163.14 280.054 154.605 278.107 142.613C277.458 138.724 276.918 124.572 276.918 110.96V86.4359H311.529H346.141V110.96ZM432.67 110.96C432.67 145.638 431.156 152.769 421.854 162.059C414.499 169.406 409.848 171.242 398.058 171.242C389.514 171.242 387.026 170.81 383.24 168.758C372.64 163.14 366.583 154.605 364.637 142.613C363.988 138.724 363.447 124.572 363.447 110.96V86.4359H398.058H432.67V110.96ZM155.993 273.01L173.083 290.079V334.697C173.083 384.285 172.974 385.473 166.593 387.742C161.726 389.362 115.216 389.362 110.349 387.742C103.967 385.473 103.859 384.285 103.859 334.697V290.079L120.841 273.118C130.251 263.719 138.146 256.049 138.471 256.049C138.795 256.049 146.691 263.719 155.993 273.01ZM62.757 36.741C61.3509 38.1454 60.5938 40.3061 60.5938 43.223C60.5938 46.1399 61.3509 48.3006 62.757 49.705C64.812 51.7577 66.3263 51.8657 86.5525 51.8657C106.779 51.8657 108.293 51.7577 110.348 49.705C111.754 48.3006 112.511 46.1399 112.511 43.223C112.511 40.3061 111.754 38.1454 110.348 36.741C108.293 34.6884 106.779 34.5803 86.5525 34.5803C66.3263 34.5803 64.812 34.6884 62.757 36.741ZM129.816 43.223C129.816 40.3061 130.574 38.1454 131.98 36.741C133.386 35.3366 135.549 34.5803 138.469 34.5803C141.39 34.5803 143.553 35.3366 144.959 36.741C146.365 38.1454 147.122 40.3061 147.122 43.223C147.122 48.9488 144.202 51.8657 138.469 51.8657C132.737 51.8657 129.816 48.9488 129.816 43.223ZM305.038 36.741C303.632 38.1454 302.875 40.3061 302.875 43.223C302.875 46.1399 303.632 48.3006 305.038 49.705C306.444 51.1095 308.608 51.8657 311.528 51.8657C314.448 51.8657 316.612 51.1095 318.018 49.705C319.424 48.3006 320.181 46.1399 320.181 43.223C320.181 40.3061 319.424 38.1454 318.018 36.741C316.612 35.3366 314.448 34.5803 311.528 34.5803C308.608 34.5803 306.444 35.3366 305.038 36.741ZM337.488 43.223C337.488 40.3061 338.245 38.1454 339.652 36.741C341.058 35.3366 343.221 34.5803 346.141 34.5803C349.062 34.5803 351.225 35.3366 352.631 36.741C354.037 38.1454 354.794 40.3061 354.794 43.223C354.794 46.1399 354.037 48.3006 352.631 49.705C351.225 51.1095 349.062 51.8657 346.141 51.8657C343.221 51.8657 341.058 51.1095 339.652 49.705C338.245 48.3006 337.488 46.1399 337.488 43.223ZM374.263 36.741C372.857 38.1454 372.1 40.3061 372.1 43.223C372.1 46.1399 372.857 48.3006 374.263 49.705C375.669 51.1094 377.832 51.8657 380.753 51.8657C383.673 51.8657 385.836 51.1094 387.242 49.705C388.648 48.3006 389.405 46.1399 389.405 43.223C389.405 40.3061 388.648 38.1454 387.242 36.741C385.836 35.3365 383.673 34.5803 380.753 34.5803C377.832 34.5803 375.669 35.3365 374.263 36.741ZM129.816 302.503C129.816 299.586 130.574 297.426 131.98 296.021C133.386 294.617 135.549 293.861 138.469 293.861C141.39 293.861 143.553 294.617 144.959 296.021C146.365 297.426 147.122 299.586 147.122 302.503C147.122 305.42 146.365 307.581 144.959 308.985C143.553 310.39 141.39 311.146 138.469 311.146C135.549 311.146 133.386 310.39 131.98 308.985C130.574 307.581 129.816 305.42 129.816 302.503ZM297.252 251.836C296.171 252.376 294.873 254.645 294.224 256.913C292.709 262.423 292.709 454.939 294.224 460.449C295.63 465.202 297.901 466.715 303.525 466.715C307.311 466.715 308.717 465.634 325.266 449.213C334.892 439.598 343.113 431.928 343.329 432.252C343.653 432.468 348.521 443.812 354.253 457.316C360.635 472.224 365.502 482.272 366.692 482.92C367.773 483.568 370.261 484 371.992 484C376.21 484 413.742 465.418 414.715 462.934C416.338 458.612 414.824 453.319 405.522 431.82C404.287 428.935 403.092 426.14 401.979 423.536C398.216 414.733 395.389 408.121 395.138 407.62C394.706 406.54 400.114 406.216 420.124 406.216C444.244 406.216 445.758 406.108 447.813 404.055C449.327 402.543 449.976 400.49 449.976 397.357V392.712L378.806 321.734C308.285 251.188 307.744 250.647 303.417 250.647C301.038 250.647 298.226 251.188 297.252 251.836ZM394.454 388.989C382.084 389.285 375.333 389.446 373.019 392.732C370.239 396.679 373.862 405.137 381.838 423.756C382.223 424.655 382.619 425.579 383.024 426.526C384.213 429.282 385.364 431.955 386.449 434.474L386.495 434.581L386.496 434.583C390.916 444.848 394.229 452.54 394.489 452.886C394.922 453.643 377.616 462.826 376.967 462.177C376.751 461.961 371.559 450.186 365.502 435.925C359.337 421.773 353.496 409.241 352.414 408.16C351.225 406.972 348.845 406.216 346.033 406.216C341.815 406.216 340.949 406.864 326.564 421.017L311.529 435.817V358.573V281.437L365.069 334.914L418.609 388.39L396.869 388.93C396.041 388.951 395.236 388.97 394.454 388.989ZM207.693 388.93C207.693 386.013 208.45 383.853 209.857 382.448C211.912 380.396 213.426 380.288 241.872 380.288C259.178 380.288 272.482 380.72 273.672 381.368C274.753 381.908 276.16 383.853 276.7 385.689C278.106 389.579 276.592 394.98 273.672 396.493C272.482 397.141 259.178 397.573 241.872 397.573C213.426 397.573 211.912 397.465 209.857 395.412C208.45 394.008 207.693 391.847 207.693 388.93Z" fill="url(#paint0_linear_8_732)"/>
<defs>
<linearGradient id="paint0_linear_8_732" x1="242.99" y1="-29.04" x2="502.21" y2="500.467" gradientUnits="userSpaceOnUse">
<stop stop-color="#00CCB4"/>
<stop offset="1" stop-color="#A895FF" stop-opacity="0"/>
</linearGradient>
</defs>
</svg>
